<?xml version="1.0" encoding="UTF-8"?>
<svg width="24px" height="24px" viewBox="0 0 24 24" version="1.1" xmlns="http://www.w3.org/2000/svg" xmlns:xlink="http://www.w3.org/1999/xlink">
    <!-- Generator: Sketch 51.2 (57519) - http://www.bohemiancoding.com/sketch -->
    <title>Primitives / Icons / Bio</title>
    <desc>Created with Sketch.</desc>
    <defs></defs>
    <g id="Primitives-/-Icons-/-Bio" stroke="none" stroke-width="1" fill="none" fill-rule="evenodd">
        <path d="M21,17 L21,19 C21,19.6 20.6,20 20,20 C19.4,20 19,19.6 19,19 L19,17 C19,15.3 17.7,14 16,14 L8,14 C6.3,14 5,15.3 5,17 L5,19 C5,19.6 4.6,20 4,20 C3.4,20 3,19.6 3,19 L3,17 C3,14.2 5.2,12 8,12 L16,12 C18.8,12 21,14.2 21,17 Z M7,5 C7,2.2 9.2,0 12,0 C14.8,0 17,2.2 17,5 C17,7.8 14.8,10 12,10 C9.2,10 7,7.8 7,5 Z M9,5 C9,6.7 10.3,8 12,8 C13.7,8 15,6.7 15,5 C15,3.3 13.7,2 12,2 C10.3,2 9,3.3 9,5 Z" id="User" fill="#1A436A" fill-rule="nonzero"></path>
    </g>
</svg>