<?xml version="1.0" encoding="UTF-8"?>
<svg width="24px" height="24px" viewBox="0 0 24 24" version="1.1" xmlns="http://www.w3.org/2000/svg" xmlns:xlink="http://www.w3.org/1999/xlink">
    <!-- Generator: Sketch 51.2 (57519) - http://www.bohemiancoding.com/sketch -->
    <title>Primitives / Icons / Contact</title>
    <desc>Created with Sketch.</desc>
    <defs>
        <path d="M22,9.9 C21.7005873,5.1 17.9080265,1.2 13.0176192,1 L12.518598,1 C12.518598,1 12.518598,1 12.518598,1 C11.0215345,1 9.62427528,1.3 8.32682027,2 C5.03328063,3.6 3.037196,6.9 3.037196,10.5 C3.037196,11.8 3.33660869,13.2 3.83562985,14.4 L2.03915368,19.7 C1.93934945,20.1 2.03915368,20.5 2.23876215,20.7 C2.53817484,20.9 2.7377833,21 3.037196,21 C3.13700023,21 3.23680446,21 3.33660869,20.9 L8.62623297,19.1 C9.82388375,19.6 11.1213388,19.9 12.518598,19.9 C16.1115503,19.9 19.40509,17.9 21.0019577,14.7 C21.7005873,13.4 22,11.9 22,10.4 L22,9.9 Z M20.0039154,10.5 C20.0039154,10.5 20.0039154,10.5 20.0039154,10.5 C20.0039154,11.7 19.7045027,12.8 19.2054815,13.9 C17.9080265,16.5 15.4129207,18 12.518598,18 C11.4207515,18 10.2231007,17.7 9.22505836,17.2 C9.02544989,17.1 8.7260372,17.1 8.4266245,17.1 L4.6340637,18.4 L5.93151872,14.6 C6.03132295,14.3 6.03132295,14.1 5.83171448,13.8 C5.33269333,12.8 5.03328063,11.6 5.03328063,10.5 C5.03328063,7.6 6.63014834,5.1 9.22505836,3.8 C10.2231007,3.3 11.4207515,3 12.518598,3 C12.518598,3 12.518598,3 12.518598,3 L12.9178149,3 C16.7103757,3.2 19.7045027,6.2 20.0039154,10 L20.0039154,10.5 Z" id="path-1"></path>
    </defs>
    <g id="Primitives-/-Icons-/-Contact" stroke="none" stroke-width="1" fill="none" fill-rule="evenodd">
        <mask id="mask-2" fill="white">
            <use xlink:href="#path-1"></use>
        </mask>
        <use id="Mask" fill="#1A436A" fill-rule="nonzero" xlink:href="#path-1"></use>
    </g>
</svg>