<?xml version="1.0" encoding="UTF-8"?>
<svg width="24px" height="24px" viewBox="0 0 24 24" version="1.1" xmlns="http://www.w3.org/2000/svg" xmlns:xlink="http://www.w3.org/1999/xlink">
    <!-- Generator: Sketch 51.2 (57519) - http://www.bohemiancoding.com/sketch -->
    <title>Primitives / Icons / LinkedIn</title>
    <desc>Created with Sketch.</desc>
    <defs>
        <path d="M16,6 C12.1,6 9,9.1 9,13 L9,20 C9,20.6 9.4,21 10,21 L14,21 C14.6,21 15,20.6 15,20 L15,13 C15,12.4 15.4,12 16,12 C16.6,12 17,12.4 17,13 L17,20 C17,20.6 17.4,21 18,21 L22,21 C22.6,21 23,20.6 23,20 L23,13 C23,9.1 19.9,6 16,6 Z M21,19 L19,19 L19,13 C19,11.3 17.7,10 16,10 C14.3,10 13,11.3 13,13 L13,19 L11,19 L11,13 C11,10.2 13.2,8 16,8 C18.8,8 21,10.2 21,13 L21,19 Z M6,7 L2,7 C1.4,7 1,7.4 1,8 L1,20 C1,20.6 1.4,21 2,21 L6,21 C6.6,21 7,20.6 7,20 L7,8 C7,7.4 6.6,7 6,7 Z M5,19 L3,19 L3,9 L5,9 L5,19 Z M4,0 C2.3,0 1,1.3 1,3 C1,4.7 2.3,6 4,6 C5.7,6 7,4.7 7,3 C7,1.3 5.7,0 4,0 Z M4,4 C3.4,4 3,3.6 3,3 C3,2.4 3.4,2 4,2 C4.6,2 5,2.4 5,3 C5,3.6 4.6,4 4,4 Z" id="path-1"></path>
    </defs>
    <g id="Primitives-/-Icons-/-LinkedIn" stroke="none" stroke-width="1" fill="none" fill-rule="evenodd">
        <mask id="mask-2" fill="white">
            <use xlink:href="#path-1"></use>
        </mask>
        <use id="Shape" fill="#1A436A" fill-rule="nonzero" xlink:href="#path-1"></use>
    </g>
</svg>