<?xml version="1.0" encoding="UTF-8"?>
<svg width="23px" height="22px" viewBox="0 0 23 22" version="1.1" xmlns="http://www.w3.org/2000/svg" xmlns:xlink="http://www.w3.org/1999/xlink">
    <!-- Generator: Sketch 51.2 (57519) - http://www.bohemiancoding.com/sketch -->
    <title>Portfolio</title>
    <desc>Created with Sketch.</desc>
    <defs></defs>
    <g id="Primitives-/-Icons" stroke="none" stroke-width="1" fill="none" fill-rule="evenodd">
        <g id="Primitives-/-Icons-/-Portfolio" transform="translate(-1.000000, -2.000000)" fill="#1A436A" fill-rule="nonzero">
            <path d="M12,17 L12,15 L21.763932,15 L20.763932,13 L12,13 L12,11 L20,11 L20,4 L9,4 L9,7 L7,7 L7,4 C7,2.8954305 7.8954305,2 9,2 L20,2 C21.1045695,2 22,2.8954305 22,4 L22,11 L23.5527864,14.1055728 C23.6916418,14.3832837 23.763932,14.6895098 23.763932,15 C23.763932,16.1045695 22.8685015,17 21.763932,17 L12,17 Z M3,8 L9,8 C10.1045695,8 11,8.8954305 11,10 L11,22 C11,23.1045695 10.1045695,24 9,24 L3,24 C1.8954305,24 1,23.1045695 1,22 L1,10 C1,8.8954305 1.8954305,8 3,8 Z M3,10 L3,22 L9,22 L9,10 L3,10 Z M6,21 C5.44771525,21 5,20.5522847 5,20 C5,19.4477153 5.44771525,19 6,19 C6.55228475,19 7,19.4477153 7,20 C7,20.5522847 6.55228475,21 6,21 Z" id="Portfolio"></path>
        </g>
    </g>
</svg>